# Blender 4.2.2 LTS
# www.blender.org
mtllib fish_marker.mtl
o ID2
v 0.152400 -0.152400 0.000000
v 0.152400 -0.152400 0.002000
v -0.152400 -0.152400 0.002000
v -0.152400 -0.152400 0.000000
v 0.152400 -0.152400 0.000000
v 0.152400 0.152400 0.000000
v 0.152400 0.152400 0.002000
v 0.152400 -0.152400 0.002000
v 0.152400 0.152400 0.000000
v -0.152400 0.152400 0.000000
v -0.152400 0.152400 0.002000
v 0.152400 0.152400 0.002000
v -0.152400 -0.152400 0.000000
v -0.152400 -0.152400 0.002000
v -0.152400 0.152400 0.002000
v -0.152400 0.152400 0.000000
v -0.152400 0.152400 0.002000
v 0.152400 -0.152400 0.002000
v 0.152400 0.152400 0.002000
v -0.152400 -0.152400 0.002000
v 0.152400 -0.152400 0.000000
v -0.152400 0.152400 0.000000
v 0.152400 0.152400 0.000000
v -0.152400 -0.152400 0.000000
vn -0.0000 -1.0000 -0.0000
vn 1.0000 -0.0000 -0.0000
vn -0.0000 1.0000 -0.0000
vn -1.0000 -0.0000 -0.0000
vn -0.0000 -0.0000 1.0000
vn -0.0000 -0.0000 -1.0000
s 0
usemtl ID9
f 1//1 2//1 3//1
f 1//1 3//1 4//1
f 5//2 6//2 7//2
f 7//2 8//2 5//2
f 9//3 10//3 11//3
f 11//3 12//3 9//3
f 13//4 14//4 15//4
f 13//4 15//4 16//4
f 17//5 18//5 19//5
f 18//5 17//5 20//5
f 21//6 22//6 23//6
f 21//6 24//6 22//6
o sawfish
v -0.151615 -0.152400 0.003000
v 0.151615 -0.152400 0.003000
v -0.151615 0.152400 0.003000
v 0.151615 0.152400 0.003000
vn -0.0000 -0.0000 1.0000
vt 0.000000 0.000000
vt 1.000000 0.000000
vt 1.000000 1.000000
vt 0.000000 1.000000
s 0
usemtl sawfish
f 25/1/7 26/2/7 28/3/7 27/4/7
