# OBJ generated by ONSHAPE BY PTC INC, 1.194 Units = meters
mtllib LeftGate.mtl
g Part 1
v 0.0378767 0.00411933 0.762 
v 0.0372092 0.00819037 0.762 
v 0.0361056 0.0121654 0.762 
v 0.0345786 0.0159978 0.762 
v 0.0326463 0.0196426 0.762 
v 0.0303311 0.0230571 0.762 
v 0.0276604 0.0262013 0.762 
v 0.0246654 0.0290384 0.762 
v 0.0213812 0.031535 0.762 
v 0.0178464 0.0336618 0.762 
v 0.0141023 0.035394 0.762 
v 0.0101928 0.0367113 0.762 
v 0.00616389 0.0375981 0.762 
v 0.00206269 0.0380441 0.762 
v -0.00206269 0.0380441 0.762 
v -0.00616389 0.0375981 0.762 
v -0.0101928 0.0367113 0.762 
v -0.0141023 0.035394 0.762 
v -0.0178464 0.0336618 0.762 
v -0.0213812 0.031535 0.762 
v -0.0246654 0.0290384 0.762 
v -0.0276604 0.0262013 0.762 
v -0.0303311 0.0230571 0.762 
v -0.0326463 0.0196426 0.762 
v -0.0345786 0.0159978 0.762 
v -0.0361056 0.0121654 0.762 
v -0.0372092 0.00819037 0.762 
v -0.0378767 0.00411933 0.762 
v -0.0381 2.33295e-18 0.762 
v -0.0378767 -0.00411933 0.762 
v -0.0372092 -0.00819037 0.762 
v -0.0361056 -0.0121654 0.762 
v -0.0345786 -0.0159978 0.762 
v -0.0326463 -0.0196426 0.762 
v -0.0303311 -0.0230571 0.762 
v -0.0276604 -0.0262013 0.762 
v -0.0246654 -0.0290384 0.762 
v -0.0213812 -0.031535 0.762 
v -0.0178464 -0.0336618 0.762 
v -0.0141023 -0.035394 0.762 
v -0.0101928 -0.0367113 0.762 
v -0.00616389 -0.0375981 0.762 
v -0.00206269 -0.0380441 0.762 
v 0.00206269 -0.0380441 0.762 
v 0.00616389 -0.0375981 0.762 
v 0.0101928 -0.0367113 0.762 
v 0.0141023 -0.035394 0.762 
v 0.0178464 -0.0336618 0.762 
v 0.0213812 -0.031535 0.762 
v 0.0246654 -0.0290384 0.762 
v 0.0276604 -0.0262013 0.762 
v 0.0303311 -0.0230571 0.762 
v 0.0326463 -0.0196426 0.762 
v 0.0345786 -0.0159978 0.762 
v 0.0361056 -0.0121654 0.762 
v 0.0372092 -0.00819037 0.762 
v 0.0378767 -0.00411933 0.762 
v 0.0381 1.63307e-17 0.762 
v 0 2.33295e-18 0.762 
v -0.0381 2.33295e-18 0 
v -0.0378767 0.00411933 0 
v -0.0372092 0.00819037 0 
v -0.0361056 0.0121654 0 
v -0.0345786 0.0159978 0 
v -0.0326463 0.0196426 0 
v -0.0303311 0.0230571 0 
v -0.0276604 0.0262013 0 
v -0.0246654 0.0290384 0 
v -0.0213812 0.031535 0 
v -0.0178464 0.0336618 0 
v -0.0141023 0.035394 0 
v -0.0101928 0.0367113 0 
v -0.00616389 0.0375981 0 
v -0.00206269 0.0380441 0 
v 0.00206269 0.0380441 0 
v 0.00616389 0.0375981 0 
v 0.0101928 0.0367113 0 
v 0.0141023 0.035394 0 
v 0.0178464 0.0336618 0 
v 0.0213812 0.031535 0 
v 0.0246654 0.0290384 0 
v 0.0276604 0.0262013 0 
v 0.0303311 0.0230571 0 
v 0.0326463 0.0196426 0 
v 0.0345786 0.0159978 0 
v 0.0361056 0.0121654 0 
v 0.0372092 0.00819037 0 
v 0.0378767 0.00411933 0 
v 0.0381 6.99886e-18 0 
v 0.0378767 -0.00411933 0 
v 0.0372092 -0.00819037 0 
v 0.0361056 -0.0121654 0 
v 0.0345786 -0.0159978 0 
v 0.0326463 -0.0196426 0 
v 0.0303311 -0.0230571 0 
v 0.0276604 -0.0262013 0 
v 0.0246654 -0.0290384 0 
v 0.0213812 -0.031535 0 
v 0.0178464 -0.0336618 0 
v 0.0141023 -0.035394 0 
v 0.0101928 -0.0367113 0 
v 0.00616389 -0.0375981 0 
v 0.00206269 -0.0380441 0 
v -0.00206269 -0.0380441 0 
v -0.00616389 -0.0375981 0 
v -0.0101928 -0.0367113 0 
v -0.0141023 -0.035394 0 
v -0.0178464 -0.0336618 0 
v -0.0213812 -0.031535 0 
v -0.0246654 -0.0290384 0 
v -0.0276604 -0.0262013 0 
v -0.0303311 -0.0230571 0 
v -0.0326463 -0.0196426 0 
v -0.0345786 -0.0159978 0 
v -0.0361056 -0.0121654 0 
v -0.0372092 -0.00819037 0 
v -0.0378767 -0.00411933 0 
v 0 2.33295e-18 0 
vn 0 0 1 
vn -1 0 0 
vn -0.994138 0.108119 0 
vn -0.976621 0.21497 0 
vn -0.947653 0.319302 0 
vn -0.907575 0.419889 0 
vn -0.856857 0.515554 0 
vn -0.796093 0.605174 0 
vn -0.725995 0.687699 0 
vn -0.647386 0.762162 0 
vn -0.561187 0.827689 0 
vn -0.468408 0.883512 0 
vn -0.370138 0.928977 0 
vn -0.267528 0.96355 0 
vn -0.161782 0.986827 0 
vn -0.0541389 0.998533 0 
vn 0.0541389 0.998533 0 
vn 0.161782 0.986827 0 
vn 0.267528 0.96355 0 
vn 0.370138 0.928977 0 
vn 0.468408 0.883512 0 
vn 0.561187 0.827689 0 
vn 0.647386 0.762162 0 
vn 0.725995 0.687699 0 
vn 0.796093 0.605174 0 
vn 0.856857 0.515554 0 
vn 0.907575 0.419889 0 
vn 0.947653 0.319302 0 
vn 0.976621 0.21497 0 
vn 0.994138 0.108119 0 
vn 1 1.22465e-16 0 
vn 0.994138 -0.108119 0 
vn 0.976621 -0.21497 0 
vn 0.947653 -0.319302 0 
vn 0.907575 -0.419889 0 
vn 0.856857 -0.515554 0 
vn 0.796093 -0.605174 0 
vn 0.725995 -0.687699 0 
vn 0.647386 -0.762162 0 
vn 0.561187 -0.827689 0 
vn 0.468408 -0.883512 0 
vn 0.370138 -0.928977 0 
vn 0.267528 -0.96355 0 
vn 0.161782 -0.986827 0 
vn 0.0541389 -0.998533 0 
vn -0.0541389 -0.998533 0 
vn -0.161782 -0.986827 0 
vn -0.267528 -0.96355 0 
vn -0.370138 -0.928977 0 
vn -0.468408 -0.883512 0 
vn -0.561187 -0.827689 0 
vn -0.647386 -0.762162 0 
vn -0.725995 -0.687699 0 
vn -0.796093 -0.605174 0 
vn -0.856857 -0.515554 0 
vn -0.907575 -0.419889 0 
vn -0.947653 -0.319302 0 
vn -0.976621 -0.21497 0 
vn -0.994138 -0.108119 0 
vn 0 0 -1 
usemtl 0.000000_0.000000_0.000000_0.000000_0.000000
o mesh0
f 59//1 1//1 2//1 
f 2//1 3//1 59//1 
f 3//1 4//1 59//1 
f 4//1 5//1 59//1 
f 5//1 6//1 59//1 
f 6//1 7//1 59//1 
f 7//1 8//1 59//1 
f 8//1 9//1 59//1 
f 9//1 10//1 59//1 
f 10//1 11//1 59//1 
f 11//1 12//1 59//1 
f 12//1 13//1 59//1 
f 13//1 14//1 59//1 
f 14//1 15//1 59//1 
f 15//1 16//1 59//1 
f 16//1 17//1 59//1 
f 17//1 18//1 59//1 
f 18//1 19//1 59//1 
f 19//1 20//1 59//1 
f 20//1 21//1 59//1 
f 21//1 22//1 59//1 
f 22//1 23//1 59//1 
f 23//1 24//1 59//1 
f 24//1 25//1 59//1 
f 25//1 26//1 59//1 
f 26//1 27//1 59//1 
f 27//1 28//1 59//1 
f 28//1 29//1 59//1 
f 29//1 30//1 59//1 
f 30//1 31//1 59//1 
f 31//1 32//1 59//1 
f 32//1 33//1 59//1 
f 33//1 34//1 59//1 
f 34//1 35//1 59//1 
f 35//1 36//1 59//1 
f 36//1 37//1 59//1 
f 37//1 38//1 59//1 
f 38//1 39//1 59//1 
f 39//1 40//1 59//1 
f 40//1 41//1 59//1 
f 41//1 42//1 59//1 
f 42//1 43//1 59//1 
f 43//1 44//1 59//1 
f 44//1 45//1 59//1 
f 45//1 46//1 59//1 
f 46//1 47//1 59//1 
f 47//1 48//1 59//1 
f 48//1 49//1 59//1 
f 49//1 50//1 59//1 
f 50//1 51//1 59//1 
f 51//1 52//1 59//1 
f 52//1 53//1 59//1 
f 53//1 54//1 59//1 
f 54//1 55//1 59//1 
f 55//1 56//1 59//1 
f 56//1 57//1 59//1 
f 57//1 58//1 59//1 
f 58//1 1//1 59//1 
o mesh1
f 60//2 29//2 28//3 
f 61//3 28//3 27//4 
f 62//4 27//4 26//5 
f 63//5 26//5 25//6 
f 64//6 25//6 24//7 
f 65//7 24//7 23//8 
f 66//8 23//8 22//9 
f 67//9 22//9 21//10 
f 68//10 21//10 20//11 
f 69//11 20//11 19//12 
f 70//12 19//12 18//13 
f 71//13 18//13 17//14 
f 72//14 17//14 16//15 
f 73//15 16//15 15//16 
f 74//16 15//16 14//17 
f 75//17 14//17 13//18 
f 76//18 13//18 12//19 
f 77//19 12//19 11//20 
f 78//20 11//20 10//21 
f 79//21 10//21 9//22 
f 80//22 9//22 8//23 
f 81//23 8//23 7//24 
f 82//24 7//24 6//25 
f 83//25 6//25 5//26 
f 84//26 5//26 4//27 
f 85//27 4//27 3//28 
f 86//28 3//28 2//29 
f 87//29 2//29 1//30 
f 88//30 1//30 58//31 
f 89//31 58//31 57//32 
f 90//32 57//32 56//33 
f 91//33 56//33 55//34 
f 92//34 55//34 54//35 
f 93//35 54//35 53//36 
f 94//36 53//36 52//37 
f 95//37 52//37 51//38 
f 96//38 51//38 50//39 
f 97//39 50//39 49//40 
f 98//40 49//40 48//41 
f 99//41 48//41 47//42 
f 100//42 47//42 46//43 
f 101//43 46//43 45//44 
f 102//44 45//44 44//45 
f 103//45 44//45 43//46 
f 104//46 43//46 42//47 
f 105//47 42//47 41//48 
f 106//48 41//48 40//49 
f 107//49 40//49 39//50 
f 108//50 39//50 38//51 
f 109//51 38//51 37//52 
f 110//52 37//52 36//53 
f 111//53 36//53 35//54 
f 112//54 35//54 34//55 
f 113//55 34//55 33//56 
f 114//56 33//56 32//57 
f 115//57 32//57 31//58 
f 116//58 31//58 30//59 
f 117//59 30//59 29//2 
f 29//2 60//2 117//59 
f 30//59 117//59 116//58 
f 31//58 116//58 115//57 
f 32//57 115//57 114//56 
f 33//56 114//56 113//55 
f 34//55 113//55 112//54 
f 35//54 112//54 111//53 
f 36//53 111//53 110//52 
f 37//52 110//52 109//51 
f 38//51 109//51 108//50 
f 39//50 108//50 107//49 
f 40//49 107//49 106//48 
f 41//48 106//48 105//47 
f 42//47 105//47 104//46 
f 43//46 104//46 103//45 
f 44//45 103//45 102//44 
f 45//44 102//44 101//43 
f 46//43 101//43 100//42 
f 47//42 100//42 99//41 
f 48//41 99//41 98//40 
f 49//40 98//40 97//39 
f 50//39 97//39 96//38 
f 51//38 96//38 95//37 
f 52//37 95//37 94//36 
f 53//36 94//36 93//35 
f 54//35 93//35 92//34 
f 55//34 92//34 91//33 
f 56//33 91//33 90//32 
f 57//32 90//32 89//31 
f 58//31 89//31 88//30 
f 1//30 88//30 87//29 
f 2//29 87//29 86//28 
f 3//28 86//28 85//27 
f 4//27 85//27 84//26 
f 5//26 84//26 83//25 
f 6//25 83//25 82//24 
f 7//24 82//24 81//23 
f 8//23 81//23 80//22 
f 9//22 80//22 79//21 
f 10//21 79//21 78//20 
f 11//20 78//20 77//19 
f 12//19 77//19 76//18 
f 13//18 76//18 75//17 
f 14//17 75//17 74//16 
f 15//16 74//16 73//15 
f 16//15 73//15 72//14 
f 17//14 72//14 71//13 
f 18//13 71//13 70//12 
f 19//12 70//12 69//11 
f 20//11 69//11 68//10 
f 21//10 68//10 67//9 
f 22//9 67//9 66//8 
f 23//8 66//8 65//7 
f 24//7 65//7 64//6 
f 25//6 64//6 63//5 
f 26//5 63//5 62//4 
f 27//4 62//4 61//3 
f 28//3 61//3 60//2 
o mesh2
f 118//60 90//60 91//60 
f 91//60 92//60 118//60 
f 92//60 93//60 118//60 
f 93//60 94//60 118//60 
f 94//60 95//60 118//60 
f 95//60 96//60 118//60 
f 96//60 97//60 118//60 
f 97//60 98//60 118//60 
f 98//60 99//60 118//60 
f 99//60 100//60 118//60 
f 100//60 101//60 118//60 
f 101//60 102//60 118//60 
f 102//60 103//60 118//60 
f 103//60 104//60 118//60 
f 104//60 105//60 118//60 
f 105//60 106//60 118//60 
f 106//60 107//60 118//60 
f 107//60 108//60 118//60 
f 108//60 109//60 118//60 
f 109//60 110//60 118//60 
f 110//60 111//60 118//60 
f 111//60 112//60 118//60 
f 112//60 113//60 118//60 
f 113//60 114//60 118//60 
f 114//60 115//60 118//60 
f 115//60 116//60 118//60 
f 116//60 117//60 118//60 
f 117//60 60//60 118//60 
f 60//60 61//60 118//60 
f 61//60 62//60 118//60 
f 62//60 63//60 118//60 
f 63//60 64//60 118//60 
f 64//60 65//60 118//60 
f 65//60 66//60 118//60 
f 66//60 67//60 118//60 
f 67//60 68//60 118//60 
f 68//60 69//60 118//60 
f 69//60 70//60 118//60 
f 70//60 71//60 118//60 
f 71//60 72//60 118//60 
f 72//60 73//60 118//60 
f 73//60 74//60 118//60 
f 74//60 75//60 118//60 
f 75//60 76//60 118//60 
f 76//60 77//60 118//60 
f 77//60 78//60 118//60 
f 78//60 79//60 118//60 
f 79//60 80//60 118//60 
f 80//60 81//60 118//60 
f 81//60 82//60 118//60 
f 82//60 83//60 118//60 
f 83//60 84//60 118//60 
f 84//60 85//60 118//60 
f 85//60 86//60 118//60 
f 86//60 87//60 118//60 
f 87//60 88//60 118//60 
f 88//60 89//60 118//60 
f 89//60 90//60 118//60 
g Part 2
v 0.0378767 -0.00411933 -0.762 
v 0.0372092 -0.00819037 -0.762 
v 0.0361056 -0.0121654 -0.762 
v 0.0345786 -0.0159978 -0.762 
v 0.0326463 -0.0196426 -0.762 
v 0.0303311 -0.0230571 -0.762 
v 0.0276604 -0.0262013 -0.762 
v 0.0246654 -0.0290384 -0.762 
v 0.0213812 -0.031535 -0.762 
v 0.0178464 -0.0336618 -0.762 
v 0.0141023 -0.035394 -0.762 
v 0.0101928 -0.0367113 -0.762 
v 0.00616389 -0.0375981 -0.762 
v 0.00206269 -0.0380441 -0.762 
v -0.00206269 -0.0380441 -0.762 
v -0.00616389 -0.0375981 -0.762 
v -0.0101928 -0.0367113 -0.762 
v -0.0141023 -0.035394 -0.762 
v -0.0178464 -0.0336618 -0.762 
v -0.0213812 -0.031535 -0.762 
v -0.0246654 -0.0290384 -0.762 
v -0.0276604 -0.0262013 -0.762 
v -0.0303311 -0.0230571 -0.762 
v -0.0326463 -0.0196426 -0.762 
v -0.0345786 -0.0159978 -0.762 
v -0.0361056 -0.0121654 -0.762 
v -0.0372092 -0.00819037 -0.762 
v -0.0378767 -0.00411933 -0.762 
v -0.0381 2.33295e-18 -0.762 
v -0.0378767 0.00411933 -0.762 
v -0.0372092 0.00819037 -0.762 
v -0.0361056 0.0121654 -0.762 
v -0.0345786 0.0159978 -0.762 
v -0.0326463 0.0196426 -0.762 
v -0.0303311 0.0230571 -0.762 
v -0.0276604 0.0262013 -0.762 
v -0.0246654 0.0290384 -0.762 
v -0.0213812 0.031535 -0.762 
v -0.0178464 0.0336618 -0.762 
v -0.0141023 0.035394 -0.762 
v -0.0101928 0.0367113 -0.762 
v -0.00616389 0.0375981 -0.762 
v -0.00206269 0.0380441 -0.762 
v 0.00206269 0.0380441 -0.762 
v 0.00616389 0.0375981 -0.762 
v 0.0101928 0.0367113 -0.762 
v 0.0141023 0.035394 -0.762 
v 0.0178464 0.0336618 -0.762 
v 0.0213812 0.031535 -0.762 
v 0.0246654 0.0290384 -0.762 
v 0.0276604 0.0262013 -0.762 
v 0.0303311 0.0230571 -0.762 
v 0.0326463 0.0196426 -0.762 
v 0.0345786 0.0159978 -0.762 
v 0.0361056 0.0121654 -0.762 
v 0.0372092 0.00819037 -0.762 
v 0.0378767 0.00411933 -0.762 
v 0.0381 6.99886e-18 -0.762 
v 0 2.33295e-18 -0.762 
v -0.0381 2.33295e-18 0 
v -0.0378767 0.00411933 0 
v -0.0372092 0.00819037 0 
v -0.0361056 0.0121654 0 
v -0.0345786 0.0159978 0 
v -0.0326463 0.0196426 0 
v -0.0303311 0.0230571 0 
v -0.0276604 0.0262013 0 
v -0.0246654 0.0290384 0 
v -0.0213812 0.031535 0 
v -0.0178464 0.0336618 0 
v -0.0141023 0.035394 0 
v -0.0101928 0.0367113 0 
v -0.00616389 0.0375981 0 
v -0.00206269 0.0380441 0 
v 0.00206269 0.0380441 0 
v 0.00616389 0.0375981 0 
v 0.0101928 0.0367113 0 
v 0.0141023 0.035394 0 
v 0.0178464 0.0336618 0 
v 0.0213812 0.031535 0 
v 0.0246654 0.0290384 0 
v 0.0276604 0.0262013 0 
v 0.0303311 0.0230571 0 
v 0.0326463 0.0196426 0 
v 0.0345786 0.0159978 0 
v 0.0361056 0.0121654 0 
v 0.0372092 0.00819037 0 
v 0.0378767 0.00411933 0 
v 0.0381 1.63307e-17 0 
v 0.0378767 -0.00411933 0 
v 0.0372092 -0.00819037 0 
v 0.0361056 -0.0121654 0 
v 0.0345786 -0.0159978 0 
v 0.0326463 -0.0196426 0 
v 0.0303311 -0.0230571 0 
v 0.0276604 -0.0262013 0 
v 0.0246654 -0.0290384 0 
v 0.0213812 -0.031535 0 
v 0.0178464 -0.0336618 0 
v 0.0141023 -0.035394 0 
v 0.0101928 -0.0367113 0 
v 0.00616389 -0.0375981 0 
v 0.00206269 -0.0380441 0 
v -0.00206269 -0.0380441 0 
v -0.00616389 -0.0375981 0 
v -0.0101928 -0.0367113 0 
v -0.0141023 -0.035394 0 
v -0.0178464 -0.0336618 0 
v -0.0213812 -0.031535 0 
v -0.0246654 -0.0290384 0 
v -0.0276604 -0.0262013 0 
v -0.0303311 -0.0230571 0 
v -0.0326463 -0.0196426 0 
v -0.0345786 -0.0159978 0 
v -0.0361056 -0.0121654 0 
v -0.0372092 -0.00819037 0 
v -0.0378767 -0.00411933 0 
v 0 2.33295e-18 0 
vn 0 0 -1 
vn -1 0 0 
vn -0.994138 0.108119 0 
vn -0.976621 0.21497 0 
vn -0.947653 0.319302 0 
vn -0.907575 0.419889 0 
vn -0.856857 0.515554 0 
vn -0.796093 0.605174 0 
vn -0.725995 0.687699 0 
vn -0.647386 0.762162 0 
vn -0.561187 0.827689 0 
vn -0.468408 0.883512 0 
vn -0.370138 0.928977 0 
vn -0.267528 0.96355 0 
vn -0.161782 0.986827 0 
vn -0.0541389 0.998533 0 
vn 0.0541389 0.998533 0 
vn 0.161782 0.986827 0 
vn 0.267528 0.96355 0 
vn 0.370138 0.928977 0 
vn 0.468408 0.883512 0 
vn 0.561187 0.827689 0 
vn 0.647386 0.762162 0 
vn 0.725995 0.687699 0 
vn 0.796093 0.605174 0 
vn 0.856857 0.515554 0 
vn 0.907575 0.419889 0 
vn 0.947653 0.319302 0 
vn 0.976621 0.21497 0 
vn 0.994138 0.108119 0 
vn 1 1.22465e-16 0 
vn 0.994138 -0.108119 0 
vn 0.976621 -0.21497 0 
vn 0.947653 -0.319302 0 
vn 0.907575 -0.419889 0 
vn 0.856857 -0.515554 0 
vn 0.796093 -0.605174 0 
vn 0.725995 -0.687699 0 
vn 0.647386 -0.762162 0 
vn 0.561187 -0.827689 0 
vn 0.468408 -0.883512 0 
vn 0.370138 -0.928977 0 
vn 0.267528 -0.96355 0 
vn 0.161782 -0.986827 0 
vn 0.0541389 -0.998533 0 
vn -0.0541389 -0.998533 0 
vn -0.161782 -0.986827 0 
vn -0.267528 -0.96355 0 
vn -0.370138 -0.928977 0 
vn -0.468408 -0.883512 0 
vn -0.561187 -0.827689 0 
vn -0.647386 -0.762162 0 
vn -0.725995 -0.687699 0 
vn -0.796093 -0.605174 0 
vn -0.856857 -0.515554 0 
vn -0.907575 -0.419889 0 
vn -0.947653 -0.319302 0 
vn -0.976621 -0.21497 0 
vn -0.994138 -0.108119 0 
vn 0 0 1 
usemtl 1.000000_0.000000_0.000000_0.000000_0.000000
o mesh3
f 177//61 119//61 120//61 
f 120//61 121//61 177//61 
f 121//61 122//61 177//61 
f 122//61 123//61 177//61 
f 123//61 124//61 177//61 
f 124//61 125//61 177//61 
f 125//61 126//61 177//61 
f 126//61 127//61 177//61 
f 127//61 128//61 177//61 
f 128//61 129//61 177//61 
f 129//61 130//61 177//61 
f 130//61 131//61 177//61 
f 131//61 132//61 177//61 
f 132//61 133//61 177//61 
f 133//61 134//61 177//61 
f 134//61 135//61 177//61 
f 135//61 136//61 177//61 
f 136//61 137//61 177//61 
f 137//61 138//61 177//61 
f 138//61 139//61 177//61 
f 139//61 140//61 177//61 
f 140//61 141//61 177//61 
f 141//61 142//61 177//61 
f 142//61 143//61 177//61 
f 143//61 144//61 177//61 
f 144//61 145//61 177//61 
f 145//61 146//61 177//61 
f 146//61 147//61 177//61 
f 147//61 148//61 177//61 
f 148//61 149//61 177//61 
f 149//61 150//61 177//61 
f 150//61 151//61 177//61 
f 151//61 152//61 177//61 
f 152//61 153//61 177//61 
f 153//61 154//61 177//61 
f 154//61 155//61 177//61 
f 155//61 156//61 177//61 
f 156//61 157//61 177//61 
f 157//61 158//61 177//61 
f 158//61 159//61 177//61 
f 159//61 160//61 177//61 
f 160//61 161//61 177//61 
f 161//61 162//61 177//61 
f 162//61 163//61 177//61 
f 163//61 164//61 177//61 
f 164//61 165//61 177//61 
f 165//61 166//61 177//61 
f 166//61 167//61 177//61 
f 167//61 168//61 177//61 
f 168//61 169//61 177//61 
f 169//61 170//61 177//61 
f 170//61 171//61 177//61 
f 171//61 172//61 177//61 
f 172//61 173//61 177//61 
f 173//61 174//61 177//61 
f 174//61 175//61 177//61 
f 175//61 176//61 177//61 
f 176//61 119//61 177//61 
o mesh4
f 147//62 178//62 179//63 
f 148//63 179//63 180//64 
f 149//64 180//64 181//65 
f 150//65 181//65 182//66 
f 151//66 182//66 183//67 
f 152//67 183//67 184//68 
f 153//68 184//68 185//69 
f 154//69 185//69 186//70 
f 155//70 186//70 187//71 
f 156//71 187//71 188//72 
f 157//72 188//72 189//73 
f 158//73 189//73 190//74 
f 159//74 190//74 191//75 
f 160//75 191//75 192//76 
f 161//76 192//76 193//77 
f 162//77 193//77 194//78 
f 163//78 194//78 195//79 
f 164//79 195//79 196//80 
f 165//80 196//80 197//81 
f 166//81 197//81 198//82 
f 167//82 198//82 199//83 
f 168//83 199//83 200//84 
f 169//84 200//84 201//85 
f 170//85 201//85 202//86 
f 171//86 202//86 203//87 
f 172//87 203//87 204//88 
f 173//88 204//88 205//89 
f 174//89 205//89 206//90 
f 175//90 206//90 207//91 
f 176//91 207//91 208//92 
f 119//92 208//92 209//93 
f 120//93 209//93 210//94 
f 121//94 210//94 211//95 
f 122//95 211//95 212//96 
f 123//96 212//96 213//97 
f 124//97 213//97 214//98 
f 125//98 214//98 215//99 
f 126//99 215//99 216//100 
f 127//100 216//100 217//101 
f 128//101 217//101 218//102 
f 129//102 218//102 219//103 
f 130//103 219//103 220//104 
f 131//104 220//104 221//105 
f 132//105 221//105 222//106 
f 133//106 222//106 223//107 
f 134//107 223//107 224//108 
f 135//108 224//108 225//109 
f 136//109 225//109 226//110 
f 137//110 226//110 227//111 
f 138//111 227//111 228//112 
f 139//112 228//112 229//113 
f 140//113 229//113 230//114 
f 141//114 230//114 231//115 
f 142//115 231//115 232//116 
f 143//116 232//116 233//117 
f 144//117 233//117 234//118 
f 145//118 234//118 235//119 
f 146//119 235//119 178//62 
f 178//62 147//62 146//119 
f 235//119 146//119 145//118 
f 234//118 145//118 144//117 
f 233//117 144//117 143//116 
f 232//116 143//116 142//115 
f 231//115 142//115 141//114 
f 230//114 141//114 140//113 
f 229//113 140//113 139//112 
f 228//112 139//112 138//111 
f 227//111 138//111 137//110 
f 226//110 137//110 136//109 
f 225//109 136//109 135//108 
f 224//108 135//108 134//107 
f 223//107 134//107 133//106 
f 222//106 133//106 132//105 
f 221//105 132//105 131//104 
f 220//104 131//104 130//103 
f 219//103 130//103 129//102 
f 218//102 129//102 128//101 
f 217//101 128//101 127//100 
f 216//100 127//100 126//99 
f 215//99 126//99 125//98 
f 214//98 125//98 124//97 
f 213//97 124//97 123//96 
f 212//96 123//96 122//95 
f 211//95 122//95 121//94 
f 210//94 121//94 120//93 
f 209//93 120//93 119//92 
f 208//92 119//92 176//91 
f 207//91 176//91 175//90 
f 206//90 175//90 174//89 
f 205//89 174//89 173//88 
f 204//88 173//88 172//87 
f 203//87 172//87 171//86 
f 202//86 171//86 170//85 
f 201//85 170//85 169//84 
f 200//84 169//84 168//83 
f 199//83 168//83 167//82 
f 198//82 167//82 166//81 
f 197//81 166//81 165//80 
f 196//80 165//80 164//79 
f 195//79 164//79 163//78 
f 194//78 163//78 162//77 
f 193//77 162//77 161//76 
f 192//76 161//76 160//75 
f 191//75 160//75 159//74 
f 190//74 159//74 158//73 
f 189//73 158//73 157//72 
f 188//72 157//72 156//71 
f 187//71 156//71 155//70 
f 186//70 155//70 154//69 
f 185//69 154//69 153//68 
f 184//68 153//68 152//67 
f 183//67 152//67 151//66 
f 182//66 151//66 150//65 
f 181//65 150//65 149//64 
f 180//64 149//64 148//63 
f 179//63 148//63 147//62 
o mesh5
f 236//120 206//120 205//120 
f 205//120 204//120 236//120 
f 204//120 203//120 236//120 
f 203//120 202//120 236//120 
f 202//120 201//120 236//120 
f 201//120 200//120 236//120 
f 200//120 199//120 236//120 
f 199//120 198//120 236//120 
f 198//120 197//120 236//120 
f 197//120 196//120 236//120 
f 196//120 195//120 236//120 
f 195//120 194//120 236//120 
f 194//120 193//120 236//120 
f 193//120 192//120 236//120 
f 192//120 191//120 236//120 
f 191//120 190//120 236//120 
f 190//120 189//120 236//120 
f 189//120 188//120 236//120 
f 188//120 187//120 236//120 
f 187//120 186//120 236//120 
f 186//120 185//120 236//120 
f 185//120 184//120 236//120 
f 184//120 183//120 236//120 
f 183//120 182//120 236//120 
f 182//120 181//120 236//120 
f 181//120 180//120 236//120 
f 180//120 179//120 236//120 
f 179//120 178//120 236//120 
f 178//120 235//120 236//120 
f 235//120 234//120 236//120 
f 234//120 233//120 236//120 
f 233//120 232//120 236//120 
f 232//120 231//120 236//120 
f 231//120 230//120 236//120 
f 230//120 229//120 236//120 
f 229//120 228//120 236//120 
f 228//120 227//120 236//120 
f 227//120 226//120 236//120 
f 226//120 225//120 236//120 
f 225//120 224//120 236//120 
f 224//120 223//120 236//120 
f 223//120 222//120 236//120 
f 222//120 221//120 236//120 
f 221//120 220//120 236//120 
f 220//120 219//120 236//120 
f 219//120 218//120 236//120 
f 218//120 217//120 236//120 
f 217//120 216//120 236//120 
f 216//120 215//120 236//120 
f 215//120 214//120 236//120 
f 214//120 213//120 236//120 
f 213//120 212//120 236//120 
f 212//120 211//120 236//120 
f 211//120 210//120 236//120 
f 210//120 209//120 236//120 
f 209//120 208//120 236//120 
f 208//120 207//120 236//120 
f 207//120 206//120 236//120 
