# Blender 5.0.1
# www.blender.org
mtllib Bin.mtl
o bin
v 0.457200 0.157480 0.152400
v 0.457200 0.005080 0.152400
v 0.457200 0.157480 0.762000
v 0.457200 0.005080 0.762000
v 0.152400 0.157480 0.762000
v 0.152400 0.005080 0.762000
v 0.152400 0.157480 0.152400
v 0.152400 0.005080 0.152400
v 0.147320 0.152400 0.767080
v 0.000000 0.152400 0.914400
v 0.147320 0.152400 0.147320
v 0.000000 0.152400 0.000000
v 0.462280 0.152400 0.147320
v 0.609600 0.152400 0.000000
v 0.462280 0.152400 0.767080
v 0.609600 0.152400 0.914400
v 0.609600 0.157480 0.914400
v 0.609600 0.157480 0.000000
v 0.000000 0.157480 0.000000
v 0.000000 0.157480 0.914400
v 0.147320 -0.000000 0.767080
v 0.147320 -0.000000 0.147320
v 0.462280 -0.000000 0.767080
v 0.462280 -0.000000 0.147320
vn -1.0000 -0.0000 -0.0000
vn -0.0000 -0.0000 -1.0000
vn 1.0000 -0.0000 -0.0000
vn -0.0000 -0.0000 1.0000
vn -0.0000 1.0000 -0.0000
vn -0.0000 -1.0000 -0.0000
s 0
f 1//1 2//1 3//1
f 3//1 2//1 4//1
f 3//2 4//2 5//2
f 5//2 4//2 6//2
f 5//3 6//3 7//3
f 7//3 6//3 8//3
f 7//4 8//4 1//4
f 1//4 8//4 2//4
f 8//5 6//5 2//5
f 2//5 6//5 4//5
f 9//6 10//6 11//6
f 11//6 10//6 12//6
f 11//6 12//6 13//6
f 13//6 12//6 14//6
f 13//6 14//6 15//6
f 15//6 14//6 16//6
f 15//6 16//6 9//6
f 9//6 16//6 10//6
f 3//5 17//5 1//5
f 1//5 17//5 18//5
f 1//5 18//5 7//5
f 7//5 18//5 19//5
f 7//5 19//5 5//5
f 5//5 19//5 20//5
f 5//5 20//5 3//5
f 3//5 20//5 17//5
f 20//1 19//1 10//1
f 10//1 19//1 12//1
f 17//4 20//4 16//4
f 16//4 20//4 10//4
f 18//3 17//3 14//3
f 14//3 17//3 16//3
f 19//2 18//2 12//2
f 12//2 18//2 14//2
f 21//6 22//6 23//6
f 23//6 22//6 24//6
f 21//4 23//4 9//4
f 9//4 23//4 15//4
f 22//1 21//1 11//1
f 11//1 21//1 9//1
f 24//2 22//2 13//2
f 13//2 22//2 11//2
f 23//3 24//3 15//3
f 15//3 24//3 13//3
