# Blender 4.2.2 LTS
# www.blender.org
mtllib bin.mtl
o ID2
v -0.152400 0.152400 -0.304800
v -0.152400 0.002000 -0.304800
v -0.152400 0.142000 -0.005000
v -0.152400 0.002000 -0.005000
v -0.152400 0.142000 0.005000
v -0.152400 0.002000 0.005000
v -0.152400 0.002000 0.304800
v -0.152400 0.152400 0.304800
v -0.162400 0.150400 0.314800
v -0.162400 0.000000 -0.314800
v -0.162400 0.150400 -0.314800
v -0.162400 0.000000 0.314800
v 0.162400 0.150400 0.314800
v -0.162400 0.000000 0.314800
v -0.162400 0.150400 0.314800
v 0.162400 0.000000 0.314800
v 0.162400 0.000000 -0.314800
v 0.162400 0.000000 0.314800
v 0.162400 0.150400 0.314800
v 0.162400 0.150400 -0.314800
v 0.162400 0.150400 -0.314800
v -0.162400 0.000000 -0.314800
v 0.162400 0.000000 -0.314800
v -0.162400 0.150400 -0.314800
v -0.152400 0.002000 0.005000
v 0.152400 0.002000 0.005000
v 0.152400 0.002000 0.304800
v -0.152400 0.002000 0.304800
v -0.162400 0.000000 -0.314800
v 0.162400 0.000000 0.314800
v 0.162400 0.000000 -0.314800
v -0.162400 0.000000 0.314800
v -0.152400 0.152400 0.304800
v -0.152400 0.002000 0.304800
v 0.152400 0.002000 0.304800
v 0.152400 0.152400 0.304800
v 0.152400 0.142000 -0.005000
v 0.152400 0.152400 -0.304800
v 0.152400 0.142000 0.005000
v 0.152400 0.002000 -0.304800
v 0.152400 0.152400 0.304800
v 0.152400 0.002000 0.304800
v 0.152400 0.002000 0.005000
v 0.152400 0.002000 -0.005000
v 0.152400 0.002000 -0.005000
v -0.152400 0.002000 -0.304800
v 0.152400 0.002000 -0.304800
v -0.152400 0.002000 -0.005000
v -0.152400 0.002000 -0.304800
v 0.152400 0.152400 -0.304800
v 0.152400 0.002000 -0.304800
v -0.152400 0.152400 -0.304800
v -0.152400 0.152400 -0.304800
v -0.152400 0.152400 0.304800
v -0.314800 0.152400 -0.467200
v -0.314800 0.152400 0.467200
v 0.314800 0.152400 0.467200
v 0.152400 0.152400 0.304800
v 0.152400 0.152400 -0.304800
v 0.314800 0.152400 -0.467200
v 0.314800 0.150400 0.467200
v -0.314800 0.150400 0.467200
v -0.314800 0.152400 0.467200
v 0.314800 0.152400 0.467200
v 0.314800 0.152400 -0.467200
v 0.314800 0.150400 0.467200
v 0.314800 0.152400 0.467200
v 0.314800 0.150400 -0.467200
v 0.314800 0.152400 -0.467200
v -0.314800 0.150400 -0.467200
v 0.314800 0.150400 -0.467200
v -0.314800 0.152400 -0.467200
v -0.314800 0.152400 -0.467200
v -0.314800 0.150400 0.467200
v -0.314800 0.150400 -0.467200
v -0.314800 0.152400 0.467200
v -0.314800 0.150400 0.467200
v 0.314800 0.150400 0.467200
v -0.162400 0.150400 0.314800
v 0.162400 0.150400 0.314800
v 0.314800 0.150400 -0.467200
v 0.162400 0.150400 -0.314800
v -0.314800 0.150400 -0.467200
v -0.162400 0.150400 -0.314800
v -0.152400 0.142000 -0.005000
v 0.152400 0.142000 -0.005000
v 0.152400 0.142000 0.005000
v -0.152400 0.142000 0.005000
v 0.152400 0.002000 -0.005000
v 0.152400 0.142000 -0.005000
v -0.152400 0.142000 -0.005000
v -0.152400 0.002000 -0.005000
v -0.152400 0.142000 0.005000
v 0.152400 0.142000 0.005000
v 0.152400 0.002000 0.005000
v -0.152400 0.002000 0.005000
vn 1.0000 -0.0000 -0.0000
vn -1.0000 -0.0000 -0.0000
vn -0.0000 -0.0000 1.0000
vn -0.0000 -0.0000 -1.0000
vn -0.0000 1.0000 -0.0000
vn -0.0000 -1.0000 -0.0000
s 0
usemtl ID9
f 1//1 3//1 2//1
f 2//1 3//1 4//1
f 5//1 7//1 6//1
f 8//1 3//1 1//1
f 7//1 5//1 8//1
f 8//1 5//1 3//1
f 9//2 11//2 10//2
f 10//2 12//2 9//2
f 13//3 15//3 14//3
f 14//3 16//3 13//3
f 17//1 19//1 18//1
f 17//1 20//1 19//1
f 21//4 23//4 22//4
f 22//4 24//4 21//4
f 25//5 27//5 26//5
f 27//5 25//5 28//5
f 29//6 31//6 30//6
f 30//6 32//6 29//6
f 33//4 35//4 34//4
f 33//4 36//4 35//4
f 37//2 39//2 38//2
f 37//2 38//2 40//2
f 38//2 39//2 41//2
f 39//2 42//2 41//2
f 39//2 43//2 42//2
f 37//2 40//2 44//2
f 45//5 47//5 46//5
f 45//5 46//5 48//5
f 49//3 51//3 50//3
f 49//3 50//3 52//3
f 53//5 55//5 54//5
f 54//5 55//5 56//5
f 57//5 58//5 54//5
f 59//5 57//5 60//5
f 57//5 54//5 56//5
f 60//5 55//5 59//5
f 55//5 53//5 59//5
f 57//5 59//5 58//5
f 61//3 63//3 62//3
f 61//3 64//3 63//3
f 65//1 67//1 66//1
f 66//1 68//1 65//1
f 69//4 71//4 70//4
f 70//4 72//4 69//4
f 73//2 75//2 74//2
f 74//2 76//2 73//2
f 77//6 79//6 78//6
f 79//6 80//6 78//6
f 78//6 82//6 81//6
f 81//6 82//6 83//6
f 78//6 80//6 82//6
f 83//6 79//6 77//6
f 82//6 84//6 83//6
f 83//6 84//6 79//6
f 85//5 87//5 86//5
f 87//5 85//5 88//5
f 89//4 91//4 90//4
f 91//4 89//4 92//4
f 93//3 95//3 94//3
f 93//3 96//3 95//3
o BinFish
v 0.136181 0.003000 -0.290868
v -0.142468 0.003000 -0.290868
v 0.136182 0.003000 -0.013591
v -0.142468 0.003000 -0.013591
vn -0.0000 1.0000 -0.0000
vt 0.000000 0.000000
vt 1.000000 0.000000
vt 1.000000 1.000000
vt 0.000000 1.000000
s 0
usemtl BinFish
f 97/1/7 98/2/7 100/3/7 99/4/7
o bin_shark
v 0.144042 0.003000 0.018697
v -0.135024 0.003000 0.018697
v 0.144042 0.003000 0.296382
v -0.135024 0.003000 0.296382
vn -0.0000 1.0000 -0.0000
vt 0.000000 0.000000
vt 1.000000 0.000000
vt 1.000000 1.000000
vt 0.000000 1.000000
s 0
usemtl bin_shark
f 101/5/8 102/6/8 104/7/8 103/8/8
